<svg xmlns="http://www.w3.org/2000/svg" xmlns:xlink="http://www.w3.org/1999/xlink" width="500" zoomAndPan="magnify" viewBox="0 0 375 374.999991" height="500" preserveAspectRatio="xMidYMid meet" version="1.2"><defs><clipPath id="c765fa3997"><path d="M 5.191406 7.5 L 367.441406 7.5 L 367.441406 369.75 L 5.191406 369.75 Z M 5.191406 7.5 "/></clipPath><clipPath id="0fcc6230d9"><path d="M 128.027344 100 L 229 100 L 229 225 L 128.027344 225 Z M 128.027344 100 "/></clipPath></defs><g id="69f1dff101"><path style=" stroke:none;fill-rule:nonzero;fill:#ffffff;fill-opacity:1;" d="M 366.4375 188.605469 C 366.4375 191.550781 366.363281 194.5 366.21875 197.445312 C 366.074219 200.386719 365.859375 203.328125 365.570312 206.261719 C 365.28125 209.195312 364.917969 212.121094 364.488281 215.035156 C 364.054688 217.953125 363.550781 220.855469 362.976562 223.746094 C 362.398438 226.640625 361.753906 229.515625 361.039062 232.375 C 360.320312 235.234375 359.535156 238.074219 358.679688 240.894531 C 357.824219 243.71875 356.898438 246.515625 355.90625 249.292969 C 354.914062 252.066406 353.851562 254.816406 352.722656 257.539062 C 351.597656 260.265625 350.402344 262.960938 349.140625 265.625 C 347.878906 268.289062 346.554688 270.921875 345.164062 273.523438 C 343.777344 276.121094 342.324219 278.6875 340.808594 281.214844 C 339.292969 283.742188 337.714844 286.234375 336.078125 288.683594 C 334.441406 291.136719 332.742188 293.546875 330.988281 295.914062 C 329.230469 298.28125 327.417969 300.605469 325.546875 302.882812 C 323.675781 305.164062 321.75 307.394531 319.773438 309.578125 C 317.792969 311.761719 315.757812 313.898438 313.675781 315.984375 C 311.589844 318.066406 309.457031 320.097656 307.269531 322.078125 C 305.085938 324.058594 302.855469 325.984375 300.578125 327.855469 C 298.296875 329.726562 295.972656 331.539062 293.605469 333.292969 C 291.238281 335.050781 288.828125 336.746094 286.378906 338.386719 C 283.925781 340.023438 281.4375 341.601562 278.90625 343.117188 C 276.378906 344.632812 273.8125 346.082031 271.214844 347.472656 C 268.613281 348.863281 265.980469 350.1875 263.316406 351.449219 C 260.652344 352.710938 257.957031 353.902344 255.234375 355.03125 C 252.507812 356.160156 249.761719 357.222656 246.984375 358.214844 C 244.207031 359.207031 241.410156 360.132812 238.589844 360.988281 C 235.765625 361.84375 232.925781 362.628906 230.066406 363.34375 C 227.207031 364.0625 224.332031 364.707031 221.441406 365.28125 C 218.550781 365.859375 215.644531 366.363281 212.730469 366.792969 C 209.8125 367.226562 206.886719 367.589844 203.953125 367.875 C 201.019531 368.164062 198.082031 368.382812 195.136719 368.527344 C 192.191406 368.671875 189.246094 368.746094 186.296875 368.746094 C 183.347656 368.746094 180.402344 368.671875 177.457031 368.527344 C 174.511719 368.382812 171.574219 368.164062 168.640625 367.875 C 165.707031 367.589844 162.78125 367.226562 159.863281 366.792969 C 156.949219 366.363281 154.042969 365.859375 151.152344 365.28125 C 148.261719 364.707031 145.386719 364.0625 142.527344 363.34375 C 139.667969 362.628906 136.824219 361.84375 134.003906 360.988281 C 131.183594 360.132812 128.386719 359.207031 125.609375 358.214844 C 122.832031 357.222656 120.082031 356.160156 117.359375 355.03125 C 114.636719 353.902344 111.941406 352.710938 109.277344 351.449219 C 106.613281 350.1875 103.980469 348.863281 101.378906 347.472656 C 98.78125 346.082031 96.214844 344.632812 93.6875 343.117188 C 91.15625 341.601562 88.667969 340.023438 86.214844 338.386719 C 83.765625 336.746094 81.355469 335.050781 78.988281 333.292969 C 76.621094 331.539062 74.296875 329.726562 72.015625 327.855469 C 69.738281 325.984375 67.507812 324.058594 65.320312 322.078125 C 63.136719 320.097656 61.003906 318.066406 58.917969 315.984375 C 56.835938 313.898438 54.800781 311.761719 52.820312 309.578125 C 50.84375 307.394531 48.917969 305.164062 47.046875 302.882812 C 45.175781 300.605469 43.363281 298.28125 41.605469 295.914062 C 39.851562 293.546875 38.152344 291.136719 36.515625 288.683594 C 34.878906 286.234375 33.300781 283.742188 31.785156 281.214844 C 30.269531 278.6875 28.816406 276.121094 27.425781 273.523438 C 26.039062 270.921875 24.710938 268.289062 23.453125 265.625 C 22.191406 262.960938 20.996094 260.265625 19.871094 257.539062 C 18.742188 254.816406 17.679688 252.066406 16.6875 249.292969 C 15.695312 246.515625 14.769531 243.71875 13.914062 240.894531 C 13.058594 238.074219 12.273438 235.234375 11.554688 232.375 C 10.839844 229.515625 10.195312 226.640625 9.617188 223.746094 C 9.042969 220.855469 8.539062 217.953125 8.105469 215.035156 C 7.675781 212.121094 7.3125 209.195312 7.023438 206.261719 C 6.734375 203.328125 6.519531 200.386719 6.375 197.445312 C 6.230469 194.5 6.15625 191.550781 6.15625 188.605469 C 6.15625 185.65625 6.230469 182.710938 6.375 179.765625 C 6.519531 176.820312 6.734375 173.882812 7.023438 170.949219 C 7.3125 168.015625 7.675781 165.089844 8.105469 162.171875 C 8.539062 159.257812 9.042969 156.351562 9.617188 153.460938 C 10.195312 150.570312 10.839844 147.695312 11.554688 144.835938 C 12.273438 141.972656 13.058594 139.132812 13.914062 136.3125 C 14.769531 133.492188 15.695312 130.691406 16.6875 127.917969 C 17.679688 125.140625 18.742188 122.390625 19.871094 119.667969 C 20.996094 116.945312 22.191406 114.25 23.453125 111.585938 C 24.710938 108.917969 26.039062 106.289062 27.425781 103.6875 C 28.816406 101.085938 30.269531 98.523438 31.785156 95.992188 C 33.300781 93.464844 34.878906 90.976562 36.515625 88.523438 C 38.152344 86.074219 39.851562 83.664062 41.605469 81.296875 C 43.363281 78.925781 45.175781 76.605469 47.046875 74.324219 C 48.917969 72.046875 50.84375 69.8125 52.820312 67.628906 C 54.800781 65.445312 56.835938 63.3125 58.917969 61.226562 C 61.003906 59.140625 63.136719 57.109375 65.320312 55.128906 C 67.507812 53.148438 69.738281 51.226562 72.015625 49.355469 C 74.296875 47.484375 76.621094 45.671875 78.988281 43.914062 C 81.355469 42.160156 83.765625 40.460938 86.214844 38.824219 C 88.667969 37.1875 91.15625 35.609375 93.6875 34.09375 C 96.214844 32.578125 98.78125 31.125 101.378906 29.734375 C 103.980469 28.34375 106.613281 27.019531 109.277344 25.761719 C 111.941406 24.5 114.636719 23.304688 117.359375 22.175781 C 120.082031 21.046875 122.832031 19.988281 125.609375 18.996094 C 128.386719 18 131.183594 17.078125 134.003906 16.222656 C 136.824219 15.367188 139.667969 14.578125 142.527344 13.863281 C 145.386719 13.148438 148.261719 12.5 151.152344 11.925781 C 154.042969 11.351562 156.949219 10.847656 159.863281 10.414062 C 162.78125 9.980469 165.707031 9.621094 168.640625 9.332031 C 171.574219 9.042969 174.511719 8.828125 177.457031 8.679688 C 180.402344 8.535156 183.347656 8.464844 186.296875 8.464844 C 189.246094 8.464844 192.191406 8.535156 195.136719 8.679688 C 198.082031 8.828125 201.019531 9.042969 203.953125 9.332031 C 206.886719 9.621094 209.8125 9.980469 212.730469 10.414062 C 215.644531 10.847656 218.546875 11.351562 221.441406 11.925781 C 224.332031 12.5 227.207031 13.148438 230.066406 13.863281 C 232.925781 14.578125 235.765625 15.367188 238.589844 16.222656 C 241.410156 17.078125 244.207031 18 246.984375 18.996094 C 249.761719 19.988281 252.507812 21.046875 255.234375 22.175781 C 257.957031 23.304688 260.652344 24.5 263.316406 25.761719 C 265.980469 27.019531 268.613281 28.34375 271.214844 29.734375 C 273.8125 31.125 276.378906 32.578125 278.90625 34.09375 C 281.4375 35.609375 283.925781 37.1875 286.378906 38.824219 C 288.828125 40.460938 291.238281 42.160156 293.605469 43.914062 C 295.972656 45.671875 298.296875 47.484375 300.578125 49.355469 C 302.855469 51.226562 305.085938 53.148438 307.269531 55.128906 C 309.457031 57.109375 311.589844 59.140625 313.675781 61.226562 C 315.757812 63.3125 317.792969 65.445312 319.773438 67.628906 C 321.75 69.8125 323.675781 72.046875 325.546875 74.324219 C 327.417969 76.605469 329.230469 78.925781 330.988281 81.296875 C 332.742188 83.664062 334.441406 86.074219 336.078125 88.523438 C 337.714844 90.976562 339.292969 93.464844 340.808594 95.992188 C 342.324219 98.523438 343.777344 101.085938 345.164062 103.6875 C 346.554688 106.289062 347.878906 108.917969 349.140625 111.585938 C 350.402344 114.25 351.597656 116.945312 352.722656 119.667969 C 353.851562 122.390625 354.914062 125.140625 355.90625 127.917969 C 356.898438 130.691406 357.824219 133.492188 358.679688 136.3125 C 359.535156 139.132812 360.320312 141.972656 361.039062 144.835938 C 361.753906 147.695312 362.398438 150.570312 362.976562 153.460938 C 363.550781 156.351562 364.054688 159.257812 364.488281 162.171875 C 364.917969 165.089844 365.28125 168.015625 365.570312 170.949219 C 365.859375 173.882812 366.074219 176.820312 366.21875 179.765625 C 366.363281 182.710938 366.4375 185.65625 366.4375 188.605469 Z M 366.4375 188.605469 "/><g clip-rule="nonzero" clip-path="url(#c765fa3997)"><path style="fill:none;stroke-width:1;stroke-linecap:butt;stroke-linejoin:miter;stroke:#000000;stroke-opacity:1;stroke-miterlimit:10;" d="M 177.410437 89.640491 C 177.410437 91.075543 177.374275 92.512499 177.303855 93.947551 C 177.233434 95.3807 177.128755 96.813849 176.987915 98.243192 C 176.847074 99.672534 176.670071 101.09807 176.460714 102.517897 C 176.249453 103.939626 176.003933 105.353743 175.724155 106.762149 C 175.442474 108.172459 175.128437 109.573253 174.780142 110.966434 C 174.429943 112.359615 174.04739 113.743279 173.630577 115.117427 C 173.213765 116.493479 172.762694 117.856208 172.279268 119.20942 C 171.795842 120.560729 171.278157 121.900619 170.728117 123.227186 C 170.179981 124.555656 169.597586 125.8689 168.982835 127.166918 C 168.368085 128.464936 167.722882 129.747729 167.045324 131.015295 C 166.36967 132.280957 165.66166 133.531394 164.923198 134.762799 C 164.184736 135.994203 163.415822 137.208478 162.618359 138.401817 C 161.820896 139.59706 160.992981 140.771366 160.138421 141.924737 C 159.281958 143.078108 158.398848 144.210543 157.487191 145.32014 C 156.575533 146.431639 155.637229 147.518396 154.674184 148.582314 C 153.709235 149.646232 152.71764 150.687311 151.703207 151.703648 C 150.68687 152.718082 149.647694 153.707773 148.581873 154.672722 C 147.517955 155.637671 146.431197 156.575974 145.321601 157.487632 C 144.210102 158.39929 143.077667 159.282399 141.924296 160.136959 C 140.770925 160.993423 139.596618 161.819435 138.403279 162.618801 C 137.208036 163.416263 135.995665 164.185177 134.762357 164.923639 C 133.530953 165.662101 132.280516 166.368208 131.014853 167.045766 C 129.747287 167.723324 128.464495 168.368526 127.166477 168.983277 C 125.868459 169.598027 124.555214 170.178519 123.228647 170.728559 C 121.900177 171.278599 120.562191 171.796284 119.208978 172.27971 C 117.855766 172.763136 116.493037 173.214207 115.118889 173.631019 C 113.742838 174.047831 112.359173 174.430385 110.965992 174.77868 C 109.572812 175.128879 108.172018 175.442915 106.763611 175.722693 C 105.355204 176.004375 103.939184 176.249894 102.519358 176.459252 C 101.097629 176.670513 99.672093 176.847515 98.24275 176.986453 C 96.813408 177.127294 95.382162 177.233876 93.947109 177.304296 C 92.512057 177.374716 91.077005 177.410878 89.640049 177.410878 C 88.203094 177.410878 86.768041 177.374716 85.332989 177.304296 C 83.897937 177.233876 82.466691 177.127294 81.037348 176.986453 C 79.608006 176.847515 78.18247 176.670513 76.76074 176.459252 C 75.340914 176.249894 73.924894 176.004375 72.516487 175.722693 C 71.108081 175.442915 69.707287 175.128879 68.314106 174.77868 C 66.920925 174.430385 65.535358 174.047831 64.161209 173.631019 C 62.787061 173.214207 61.424333 172.763136 60.07112 172.27971 C 58.717908 171.796284 57.378018 171.278599 56.051451 170.728559 C 54.724884 170.178519 53.41164 169.598027 52.113622 168.983277 C 50.815604 168.368526 49.532812 167.723324 48.265245 167.045766 C 46.999583 166.368208 45.749146 165.662101 44.517741 164.923639 C 43.284434 164.185177 42.072062 163.416263 40.87682 162.618801 C 39.68348 161.819435 38.509174 160.993423 37.355803 160.136959 C 36.202432 159.282399 35.069997 158.39929 33.958497 157.487632 C 32.848901 156.575974 31.762144 155.637671 30.696323 154.672722 C 29.632405 153.707773 28.593229 152.718082 27.576892 151.703648 C 26.562458 150.687311 25.570864 149.646232 24.605915 148.582314 C 23.642869 147.518396 22.704566 146.431639 21.792908 145.32014 C 20.88125 144.210543 19.998141 143.078108 19.141677 141.924737 C 18.287117 140.771366 17.459202 139.59706 16.661739 138.401817 C 15.864277 137.208478 15.095363 135.994203 14.356901 134.762799 C 13.618439 133.531394 12.910429 132.280957 12.232871 131.015295 C 11.557217 129.747729 10.910111 128.464936 10.297263 127.166918 C 9.682513 125.8689 9.100118 124.555656 8.551981 123.227186 C 8.001941 121.900619 7.484256 120.560729 7.00083 119.20942 C 6.517404 117.856208 6.066333 116.493479 5.649521 115.117427 C 5.232709 113.743279 4.850155 112.359615 4.499957 110.966434 C 4.151661 109.573253 3.837625 108.172459 3.555943 106.762149 C 3.276165 105.353743 3.030646 103.939626 2.819385 102.517897 C 2.610027 101.09807 2.433025 99.672534 2.292184 98.243192 C 2.151343 96.813849 2.046664 95.3807 1.976244 93.947551 C 1.905824 92.512499 1.869662 91.075543 1.869662 89.640491 C 1.869662 88.203535 1.905824 86.768483 1.976244 85.333431 C 2.046664 83.898378 2.151343 82.467133 2.292184 81.03779 C 2.433025 79.608447 2.610027 78.182911 2.819385 76.761182 C 3.030646 75.341356 3.276165 73.925336 3.555943 72.516929 C 3.837625 71.108522 4.151661 69.707728 4.499957 68.314548 C 4.850155 66.919464 5.232709 65.535799 5.649521 64.161651 C 6.066333 62.787503 6.517404 61.422871 7.00083 60.071562 C 7.484256 58.718349 8.001941 57.378459 8.551981 56.051893 C 9.100118 54.725326 9.682513 53.412081 10.297263 52.114063 C 10.910111 50.814142 11.557217 49.533253 12.232871 48.265687 C 12.910429 46.998121 13.618439 45.749587 14.356901 44.51628 C 15.095363 43.284876 15.864277 42.072504 16.661739 40.877261 C 17.459202 39.683922 18.287117 38.509615 19.141677 37.356244 C 19.998141 36.20097 20.88125 35.070438 21.792908 33.958939 C 22.704566 32.849343 23.642869 31.760682 24.605915 30.696764 C 25.570864 29.632846 26.562458 28.59367 27.576892 27.577333 C 28.593229 26.560997 29.632405 25.571305 30.696323 24.606357 C 31.762144 23.641408 32.848901 22.705007 33.958497 21.793349 C 35.069997 20.881692 36.202432 19.998582 37.355803 19.142119 C 38.509174 18.287559 39.68348 17.459644 40.87682 16.662181 C 42.072062 15.864718 43.284434 15.095804 44.517741 14.357342 C 45.749146 13.61888 46.999583 12.910871 48.265245 12.233313 C 49.532812 11.555755 50.815604 10.910552 52.113622 10.297705 C 53.41164 9.682954 54.724884 9.100559 56.051451 8.550519 C 57.378018 8.000479 58.717908 7.484698 60.07112 7.001272 C 61.424333 6.515943 62.787061 6.066775 64.161209 5.649963 C 65.535358 5.23315 66.920925 4.848693 68.314106 4.500398 C 69.707287 4.152103 71.108081 3.836163 72.516487 3.556385 C 73.924894 3.276607 75.340914 3.031087 76.76074 2.819826 C 78.18247 2.608565 79.608006 2.433466 81.037348 2.292625 C 82.466691 2.151785 83.897937 2.047106 85.332989 1.974782 C 86.768041 1.904362 88.203094 1.870103 89.640049 1.870103 C 91.077005 1.870103 92.512057 1.904362 93.947109 1.974782 C 95.382162 2.047106 96.813408 2.151785 98.24275 2.292625 C 99.672093 2.433466 101.097629 2.608565 102.519358 2.819826 C 103.939184 3.031087 105.353301 3.276607 106.763611 3.556385 C 108.172018 3.836163 109.572812 4.152103 110.965992 4.500398 C 112.359173 4.848693 113.742838 5.23315 115.118889 5.649963 C 116.493037 6.066775 117.855766 6.515943 119.208978 7.001272 C 120.562191 7.484698 121.900177 8.000479 123.228647 8.550519 C 124.555214 9.100559 125.868459 9.682954 127.166477 10.297705 C 128.464495 10.910552 129.747287 11.555755 131.014853 12.233313 C 132.280516 12.910871 133.530953 13.61888 134.762357 14.357342 C 135.995665 15.095804 137.208036 15.864718 138.403279 16.662181 C 139.596618 17.459644 140.770925 18.287559 141.924296 19.142119 C 143.077667 19.998582 144.210102 20.881692 145.321601 21.793349 C 146.431197 22.705007 147.517955 23.641408 148.581873 24.606357 C 149.647694 25.571305 150.68687 26.560997 151.703207 27.577333 C 152.71764 28.59367 153.709235 29.632846 154.674184 30.696764 C 155.637229 31.760682 156.575533 32.849343 157.487191 33.958939 C 158.398848 35.070438 159.281958 36.20097 160.138421 37.356244 C 160.992981 38.509615 161.820896 39.683922 162.618359 40.877261 C 163.415822 42.072504 164.184736 43.284876 164.923198 44.51628 C 165.66166 45.749587 166.36967 46.998121 167.045324 48.265687 C 167.722882 49.533253 168.368085 50.814142 168.982835 52.114063 C 169.597586 53.412081 170.179981 54.725326 170.728117 56.051893 C 171.278157 57.378459 171.795842 58.718349 172.279268 60.071562 C 172.762694 61.422871 173.213765 62.787503 173.630577 64.161651 C 174.04739 65.535799 174.429943 66.919464 174.780142 68.314548 C 175.128437 69.707728 175.442474 71.108522 175.724155 72.516929 C 176.003933 73.925336 176.249453 75.341356 176.460714 76.761182 C 176.670071 78.182911 176.847074 79.608447 176.987915 81.03779 C 177.128755 82.467133 177.233434 83.898378 177.303855 85.333431 C 177.374275 86.768483 177.410437 88.203535 177.410437 89.640491 Z M 177.410437 89.640491 " transform="matrix(2.052408,0,0,2.052408,2.318941,4.626629)"/></g><path style=" stroke:none;fill-rule:nonzero;fill:#000000;fill-opacity:1;" d="M 235.332031 173.539062 C 237 177.5625 238.707031 181.292969 240.109375 185.132812 C 244.828125 198.046875 246.949219 211.289062 244.5625 224.988281 C 241.316406 243.597656 230.101562 255.859375 213.503906 263.882812 C 187.207031 276.59375 153.492188 267.921875 137.71875 244.296875 C 135.277344 240.644531 135.210938 240.539062 138.875 238.066406 C 153.859375 227.980469 168.886719 217.964844 183.894531 207.917969 C 200.214844 196.992188 216.53125 186.066406 232.847656 175.140625 C 233.484375 174.714844 234.140625 174.304688 235.332031 173.539062 Z M 160.15625 243.691406 C 161.824219 244.769531 162.710938 245.582031 163.753906 245.980469 C 166.886719 247.175781 170.023438 248.417969 173.257812 249.257812 C 184.851562 252.269531 196.28125 252.566406 207.226562 246.664062 C 223.753906 237.738281 231.441406 221.660156 227.652344 203.785156 C 227.382812 202.515625 226.84375 201.304688 226.285156 199.644531 C 204.117188 214.4375 182.007812 228.3125 160.15625 243.691406 Z M 160.15625 243.691406 "/><g clip-rule="nonzero" clip-path="url(#0fcc6230d9)"><path style=" stroke:none;fill-rule:nonzero;fill:#000000;fill-opacity:1;" d="M 147.472656 213.011719 C 149.304688 201.894531 153.785156 191.699219 160.015625 181.871094 C 161.121094 182.761719 161.980469 183.394531 162.773438 184.101562 C 166.949219 187.820312 171.1875 191.46875 175.273438 195.277344 L 191.210938 185.113281 C 185.105469 178.929688 179.03125 172.714844 172.816406 166.640625 C 171.039062 164.898438 170.761719 163.515625 172.269531 161.578125 C 178.453125 153.625 190.785156 137.691406 190.785156 137.691406 C 190.785156 137.691406 206.457031 159.171875 213.160156 171.113281 L 228.789062 161.144531 C 215.832031 137.285156 189.449219 98.402344 188.402344 100.097656 C 175.726562 120.6875 162.667969 141.058594 150.492188 161.9375 C 143.449219 174.015625 137.285156 186.675781 131.738281 199.515625 C 128.273438 207.539062 128.0625 216.023438 129.71875 224.335938 Z M 147.472656 213.011719 "/></g></g></svg>