<svg xmlns="http://www.w3.org/2000/svg" xmlns:xlink="http://www.w3.org/1999/xlink" width="500" zoomAndPan="magnify" viewBox="0 0 375 374.999991" height="500" preserveAspectRatio="xMidYMid meet" version="1.2"><defs><clipPath id="ed1cd1f908"><path d="M 0 2.53125 L 372.75 2.53125 L 372.75 375 L 0 375 Z M 0 2.53125 "/></clipPath><clipPath id="2a6c07ecdf"><path d="M 103.09375 107 L 174 107 L 174 269 L 103.09375 269 Z M 103.09375 107 "/></clipPath></defs><g id="b7e7139ce0"><path style=" stroke:none;fill-rule:nonzero;fill:#ffffff;fill-opacity:1;" d="M 371.714844 188.886719 C 371.714844 191.917969 371.640625 194.953125 371.492188 197.980469 C 371.34375 201.011719 371.121094 204.035156 370.824219 207.054688 C 370.523438 210.074219 370.152344 213.082031 369.707031 216.085938 C 369.265625 219.085938 368.746094 222.074219 368.152344 225.046875 C 367.5625 228.023438 366.898438 230.984375 366.160156 233.925781 C 365.421875 236.867188 364.613281 239.789062 363.734375 242.695312 C 362.851562 245.597656 361.902344 248.476562 360.878906 251.332031 C 359.859375 254.1875 358.765625 257.019531 357.605469 259.820312 C 356.445312 262.625 355.214844 265.394531 353.917969 268.136719 C 352.621094 270.878906 351.257812 273.589844 349.828125 276.265625 C 348.398438 278.941406 346.902344 281.578125 345.34375 284.179688 C 343.785156 286.78125 342.160156 289.34375 340.476562 291.867188 C 338.789062 294.390625 337.042969 296.867188 335.238281 299.304688 C 333.429688 301.742188 331.566406 304.132812 329.640625 306.476562 C 327.714844 308.824219 325.734375 311.121094 323.699219 313.367188 C 321.660156 315.613281 319.570312 317.8125 317.425781 319.957031 C 315.277344 322.101562 313.082031 324.191406 310.835938 326.230469 C 308.585938 328.265625 306.289062 330.246094 303.945312 332.171875 C 301.601562 334.097656 299.210938 335.960938 296.773438 337.769531 C 294.335938 339.578125 291.855469 341.324219 289.335938 343.007812 C 286.8125 344.695312 284.25 346.316406 281.648438 347.875 C 279.046875 349.433594 276.40625 350.929688 273.734375 352.359375 C 271.058594 353.789062 268.347656 355.152344 265.605469 356.449219 C 262.863281 357.746094 260.089844 358.976562 257.289062 360.136719 C 254.484375 361.296875 251.65625 362.390625 248.800781 363.410156 C 245.945312 364.433594 243.0625 365.386719 240.160156 366.265625 C 237.257812 367.144531 234.335938 367.957031 231.394531 368.691406 C 228.449219 369.429688 225.492188 370.09375 222.515625 370.6875 C 219.539062 371.277344 216.554688 371.796875 213.550781 372.242188 C 210.550781 372.6875 207.542969 373.058594 204.523438 373.355469 C 201.503906 373.652344 198.480469 373.875 195.449219 374.023438 C 192.417969 374.171875 189.386719 374.246094 186.355469 374.246094 C 183.320312 374.246094 180.289062 374.171875 177.257812 374.023438 C 174.230469 373.875 171.203125 373.652344 168.183594 373.355469 C 165.167969 373.058594 162.15625 372.6875 159.15625 372.242188 C 156.15625 371.796875 153.167969 371.277344 150.191406 370.6875 C 147.214844 370.09375 144.257812 369.429688 141.316406 368.691406 C 138.371094 367.957031 135.449219 367.144531 132.546875 366.265625 C 129.644531 365.386719 126.765625 364.433594 123.90625 363.410156 C 121.050781 362.390625 118.222656 361.296875 115.417969 360.136719 C 112.617188 358.976562 109.84375 357.746094 107.101562 356.449219 C 104.359375 355.152344 101.652344 353.789062 98.976562 352.359375 C 96.300781 350.929688 93.660156 349.433594 91.058594 347.875 C 88.457031 346.316406 85.894531 344.695312 83.371094 343.007812 C 80.851562 341.324219 78.371094 339.578125 75.933594 337.769531 C 73.496094 335.960938 71.105469 334.097656 68.761719 332.171875 C 66.417969 330.246094 64.121094 328.265625 61.871094 326.230469 C 59.625 324.191406 57.429688 322.101562 55.285156 319.957031 C 53.136719 317.8125 51.046875 315.613281 49.011719 313.367188 C 46.972656 311.121094 44.992188 308.824219 43.066406 306.476562 C 41.144531 304.132812 39.277344 301.742188 37.46875 299.304688 C 35.664062 296.867188 33.917969 294.390625 32.230469 291.867188 C 30.546875 289.34375 28.921875 286.78125 27.363281 284.179688 C 25.804688 281.578125 24.308594 278.941406 22.878906 276.265625 C 21.449219 273.589844 20.085938 270.878906 18.789062 268.136719 C 17.492188 265.394531 16.261719 262.625 15.101562 259.820312 C 13.941406 257.019531 12.851562 254.1875 11.828125 251.332031 C 10.804688 248.476562 9.855469 245.597656 8.972656 242.695312 C 8.09375 239.789062 7.285156 236.867188 6.546875 233.925781 C 5.8125 230.984375 5.144531 228.023438 4.554688 225.046875 C 3.960938 222.074219 3.445312 219.085938 3 216.085938 C 2.554688 213.082031 2.183594 210.074219 1.886719 207.054688 C 1.585938 204.035156 1.363281 201.011719 1.214844 197.980469 C 1.066406 194.953125 0.992188 191.917969 0.992188 188.886719 C 0.992188 185.851562 1.066406 182.820312 1.214844 179.789062 C 1.363281 176.761719 1.585938 173.738281 1.886719 170.71875 C 2.183594 167.699219 2.554688 164.6875 3 161.6875 C 3.445312 158.6875 3.960938 155.699219 4.554688 152.722656 C 5.144531 149.75 5.8125 146.789062 6.546875 143.847656 C 7.285156 140.90625 8.09375 137.980469 8.972656 135.078125 C 9.855469 132.175781 10.804688 129.296875 11.828125 126.441406 C 12.851562 123.582031 13.941406 120.753906 15.101562 117.953125 C 16.261719 115.148438 17.492188 112.375 18.789062 109.632812 C 20.085938 106.890625 21.449219 104.183594 22.878906 101.507812 C 24.308594 98.832031 25.804688 96.191406 27.363281 93.589844 C 28.921875 90.988281 30.546875 88.425781 32.230469 85.90625 C 33.917969 83.382812 35.664062 80.902344 37.46875 78.464844 C 39.277344 76.03125 41.144531 73.640625 43.066406 71.292969 C 44.992188 68.949219 46.972656 66.652344 49.011719 64.40625 C 51.046875 62.15625 53.136719 59.960938 55.285156 57.816406 C 57.429688 55.671875 59.625 53.578125 61.871094 51.542969 C 64.121094 49.503906 66.417969 47.523438 68.761719 45.601562 C 71.105469 43.675781 73.496094 41.808594 75.933594 40.003906 C 78.371094 38.195312 80.851562 36.449219 83.371094 34.765625 C 85.894531 33.078125 88.457031 31.457031 91.058594 29.894531 C 93.660156 28.335938 96.300781 26.84375 98.976562 25.410156 C 101.652344 23.980469 104.359375 22.617188 107.101562 21.320312 C 109.84375 20.023438 112.617188 18.796875 115.417969 17.632812 C 118.222656 16.472656 121.050781 15.382812 123.90625 14.359375 C 126.765625 13.339844 129.644531 12.386719 132.546875 11.507812 C 135.449219 10.625 138.371094 9.816406 141.316406 9.078125 C 144.257812 8.34375 147.214844 7.679688 150.191406 7.085938 C 153.167969 6.496094 156.15625 5.976562 159.15625 5.53125 C 162.15625 5.085938 165.167969 4.714844 168.183594 4.417969 C 171.203125 4.121094 174.230469 3.898438 177.257812 3.75 C 180.289062 3.597656 183.320312 3.523438 186.355469 3.523438 C 189.386719 3.523438 192.417969 3.597656 195.449219 3.75 C 198.480469 3.898438 201.503906 4.121094 204.523438 4.417969 C 207.542969 4.714844 210.550781 5.085938 213.550781 5.53125 C 216.554688 5.976562 219.539062 6.496094 222.515625 7.085938 C 225.492188 7.679688 228.449219 8.34375 231.394531 9.078125 C 234.335938 9.816406 237.257812 10.625 240.160156 11.507812 C 243.0625 12.386719 245.945312 13.339844 248.800781 14.359375 C 251.65625 15.382812 254.484375 16.472656 257.289062 17.632812 C 260.089844 18.796875 262.863281 20.023438 265.605469 21.320312 C 268.347656 22.617188 271.058594 23.980469 273.734375 25.410156 C 276.40625 26.84375 279.046875 28.335938 281.648438 29.894531 C 284.25 31.457031 286.8125 33.078125 289.335938 34.765625 C 291.855469 36.449219 294.335938 38.195312 296.773438 40.003906 C 299.210938 41.808594 301.601562 43.675781 303.945312 45.601562 C 306.289062 47.523438 308.585938 49.503906 310.835938 51.542969 C 313.082031 53.578125 315.277344 55.671875 317.425781 57.816406 C 319.570312 59.960938 321.660156 62.15625 323.699219 64.40625 C 325.734375 66.652344 327.714844 68.949219 329.640625 71.292969 C 331.566406 73.640625 333.429688 76.03125 335.238281 78.464844 C 337.042969 80.902344 338.789062 83.382812 340.476562 85.90625 C 342.160156 88.425781 343.785156 90.988281 345.34375 93.589844 C 346.902344 96.191406 348.398438 98.832031 349.828125 101.507812 C 351.257812 104.183594 352.621094 106.890625 353.917969 109.632812 C 355.214844 112.375 356.445312 115.148438 357.605469 117.953125 C 358.765625 120.753906 359.859375 123.582031 360.878906 126.441406 C 361.902344 129.296875 362.851562 132.175781 363.734375 135.078125 C 364.613281 137.980469 365.421875 140.90625 366.160156 143.847656 C 366.898438 146.789062 367.5625 149.75 368.152344 152.722656 C 368.746094 155.699219 369.265625 158.6875 369.707031 161.6875 C 370.152344 164.6875 370.523438 167.699219 370.824219 170.71875 C 371.121094 173.738281 371.34375 176.761719 371.492188 179.789062 C 371.640625 182.820312 371.714844 185.851562 371.714844 188.886719 Z M 371.714844 188.886719 "/><g clip-rule="nonzero" clip-path="url(#ed1cd1f908)"><path style="fill:none;stroke-width:1;stroke-linecap:butt;stroke-linejoin:miter;stroke:#000000;stroke-opacity:1;stroke-miterlimit:10;" d="M 177.40984 89.640286 C 177.40984 91.075606 177.374697 92.512776 177.304411 93.946246 C 177.234125 95.381567 177.128695 96.813188 176.988123 98.242959 C 176.8457 99.67273 176.669985 101.096953 176.459126 102.519325 C 176.250116 103.939848 176.004114 105.354823 175.722969 106.762398 C 175.443674 108.171824 175.129235 109.57385 174.779653 110.966629 C 174.430071 112.359407 174.047196 113.742938 173.631027 115.119069 C 173.213008 116.493352 172.763546 117.856536 172.278941 119.208622 C 171.796185 120.560709 171.278286 121.901697 170.728943 123.227889 C 170.1796 124.55593 169.596963 125.867324 168.982883 127.165771 C 168.368803 128.464218 167.723279 129.747868 167.04631 131.014871 C 166.369342 132.281874 165.66093 133.530381 164.922924 134.762241 C 164.184918 135.9941 163.415468 137.207464 162.618274 138.402331 C 161.819229 139.597198 160.99244 140.76987 160.137907 141.924045 C 159.281524 143.07822 158.399246 144.210199 157.487374 145.319983 C 156.575501 146.431616 155.637734 147.519204 154.674072 148.582747 C 153.70856 149.646289 152.719003 150.687636 151.703551 151.703089 C 150.686249 152.718541 149.646752 153.708098 148.583209 154.67361 C 147.517817 155.637272 146.430229 156.575039 145.320445 157.486911 C 144.210662 158.398783 143.078682 159.281061 141.924507 160.137445 C 140.770332 160.993828 139.595811 161.820616 138.402794 162.617811 C 137.207926 163.416855 135.994563 164.184456 134.762703 164.922462 C 133.530843 165.660468 132.280487 166.36888 131.015334 167.045848 C 129.748331 167.722816 128.464681 168.36834 127.166234 168.98242 C 125.867787 169.596501 124.554543 170.179137 123.228351 170.72848 C 121.90031 171.277823 120.561171 171.795722 119.209085 172.278478 C 117.856998 172.763084 116.491964 173.214396 115.117682 173.630564 C 113.7434 174.046733 112.35987 174.431458 110.967091 174.779191 C 109.572463 175.128772 108.172286 175.443211 106.762861 175.724356 C 105.353436 176.003652 103.940311 176.249654 102.517938 176.460513 C 101.097415 176.671372 99.673193 176.847088 98.243421 176.98766 C 96.81365 177.128233 95.382029 177.233662 93.946709 177.303948 C 92.511389 177.374235 91.076068 177.409378 89.640748 177.409378 C 88.203578 177.409378 86.768258 177.374235 85.332938 177.303948 C 83.899467 177.233662 82.465997 177.128233 81.036225 176.98766 C 79.608304 176.847088 78.182232 176.671372 76.761709 176.460513 C 75.341185 176.249654 73.926211 176.003652 72.516786 175.724356 C 71.107361 175.443211 69.707184 175.128772 68.314405 174.779191 C 66.919777 174.431458 65.536247 174.046733 64.161964 173.630564 C 62.787682 173.214396 61.424498 172.763084 60.070562 172.278478 C 58.718476 171.795722 57.379337 171.277823 56.051295 170.72848 C 54.725104 170.179137 53.41186 169.596501 52.113413 168.98242 C 50.814966 168.36834 49.533166 167.722816 48.266163 167.045848 C 46.99916 166.36888 45.748804 165.660468 44.516944 164.922462 C 43.285084 164.184456 42.07172 163.416855 40.876853 162.617811 C 39.683836 161.820616 38.509315 160.993828 37.35514 160.137445 C 36.200965 159.281061 35.068985 158.398783 33.959202 157.486911 C 32.849418 156.575039 31.76183 155.637272 30.696438 154.67361 C 29.632895 153.708098 28.593397 152.718541 27.577945 151.703089 C 26.560644 150.687636 25.571087 149.646289 24.607424 148.582747 C 23.641913 147.519204 22.704145 146.431616 21.792273 145.319983 C 20.88225 144.210199 19.998123 143.07822 19.14174 141.924045 C 18.287206 140.76987 17.460417 139.597198 16.661373 138.402331 C 15.864179 137.207464 15.094729 135.9941 14.356722 134.762241 C 13.618716 133.530381 12.910304 132.281874 12.233336 131.014871 C 11.556368 129.747868 10.910844 128.464218 10.296764 127.165771 C 9.682683 125.867324 9.100047 124.55593 8.550704 123.227889 C 8.001361 121.901697 7.485312 120.560709 7.000706 119.208622 C 6.516101 117.856536 6.066638 116.493352 5.64862 115.119069 C 5.232451 113.742938 4.849576 112.359407 4.499994 110.966629 C 4.152261 109.57385 3.835973 108.171824 3.556678 106.762398 C 3.275532 105.354823 3.03138 103.939848 2.820521 102.519325 C 2.609662 101.096953 2.433946 99.67273 2.293374 98.242959 C 2.150952 96.813188 2.045522 95.381567 1.975236 93.946246 C 1.904949 92.512776 1.869806 91.075606 1.869806 89.640286 C 1.869806 88.203116 1.904949 86.767796 1.975236 85.332475 C 2.045522 83.899005 2.150952 82.467384 2.293374 81.037613 C 2.433946 79.607841 2.609662 78.181769 2.820521 76.761246 C 3.03138 75.340723 3.275532 73.925749 3.556678 72.516323 C 3.835973 71.108748 4.152261 69.706721 4.499994 68.313943 C 4.849576 66.921164 5.232451 65.535784 5.64862 64.161502 C 6.066638 62.78722 6.516101 61.424036 7.000706 60.071949 C 7.485312 58.718013 8.001361 57.378874 8.550704 56.052683 C 9.100047 54.724641 9.682683 53.411397 10.296764 52.11295 C 10.910844 50.814504 11.556368 49.532703 12.233336 48.2657 C 12.910304 46.998697 13.618716 45.748341 14.356722 44.516481 C 15.094729 43.284621 15.864179 42.071258 16.661373 40.87824 C 17.460417 39.683373 18.287206 38.508852 19.14174 37.354677 C 19.998123 36.202352 20.88225 35.070372 21.792273 33.958739 C 22.704145 32.848955 23.641913 31.761367 24.607424 30.697825 C 25.571087 29.632432 26.560644 28.592935 27.577945 27.577483 C 28.593397 26.562031 29.632895 25.570624 30.696438 24.606962 C 31.76183 23.64145 32.849418 22.703683 33.959202 21.79366 C 35.068985 20.881788 36.200965 19.99766 37.35514 19.143127 C 38.509315 18.286744 39.683836 17.459955 40.876853 16.66276 C 42.07172 15.863716 43.285084 15.096116 44.516944 14.35626 C 45.748804 13.618254 46.99916 12.911691 48.266163 12.232874 C 49.533166 11.555906 50.814966 10.910382 52.113413 10.296301 C 53.41186 9.682221 54.725104 9.101434 56.051295 8.550242 C 57.379337 8.000899 58.718476 7.484849 60.070562 7.000244 C 61.424498 6.517488 62.787682 6.066176 64.161964 5.650007 C 65.536247 5.231988 66.919777 4.849113 68.314405 4.499531 C 69.707184 4.151799 71.107361 3.83736 72.516786 3.556215 C 73.926211 3.276919 75.341185 3.030917 76.761709 2.820059 C 78.182232 2.6092 79.608304 2.433484 81.036225 2.292911 C 82.465997 2.152339 83.899467 2.046909 85.332938 1.976623 C 86.768258 1.904487 88.203578 1.869344 89.640748 1.869344 C 91.076068 1.869344 92.511389 1.904487 93.946709 1.976623 C 95.382029 2.046909 96.81365 2.152339 98.243421 2.292911 C 99.673193 2.433484 101.097415 2.6092 102.517938 2.820059 C 103.940311 3.030917 105.353436 3.276919 106.762861 3.556215 C 108.172286 3.83736 109.572463 4.151799 110.967091 4.499531 C 112.35987 4.849113 113.7434 5.231988 115.117682 5.650007 C 116.491964 6.066176 117.856998 6.517488 119.209085 7.000244 C 120.561171 7.484849 121.90031 8.000899 123.228351 8.550242 C 124.554543 9.101434 125.867787 9.682221 127.166234 10.296301 C 128.464681 10.910382 129.748331 11.555906 131.015334 12.232874 C 132.280487 12.911691 133.530843 13.618254 134.762703 14.35626 C 135.994563 15.096116 137.207926 15.863716 138.402794 16.66276 C 139.595811 17.459955 140.770332 18.286744 141.924507 19.143127 C 143.078682 19.99766 144.210662 20.881788 145.320445 21.79366 C 146.430229 22.703683 147.517817 23.64145 148.583209 24.606962 C 149.646752 25.570624 150.686249 26.562031 151.703551 27.577483 C 152.719003 28.592935 153.70856 29.632432 154.674072 30.697825 C 155.637734 31.761367 156.575501 32.848955 157.487374 33.958739 C 158.399246 35.070372 159.281524 36.202352 160.137907 37.354677 C 160.99244 38.508852 161.819229 39.683373 162.618274 40.87824 C 163.415468 42.071258 164.184918 43.284621 164.922924 44.516481 C 165.66093 45.748341 166.369342 46.998697 167.04631 48.2657 C 167.723279 49.532703 168.368803 50.814504 168.982883 52.11295 C 169.596963 53.411397 170.1796 54.724641 170.728943 56.052683 C 171.278286 57.378874 171.796185 58.718013 172.278941 60.071949 C 172.763546 61.424036 173.213008 62.78722 173.631027 64.161502 C 174.047196 65.535784 174.430071 66.921164 174.779653 68.313943 C 175.129235 69.706721 175.443674 71.108748 175.722969 72.516323 C 176.004114 73.925749 176.250116 75.340723 176.459126 76.761246 C 176.669985 78.181769 176.8457 79.607841 176.988123 81.037613 C 177.128695 82.467384 177.234125 83.899005 177.304411 85.332475 C 177.374697 86.767796 177.40984 88.203116 177.40984 89.640286 Z M 177.40984 89.640286 " transform="matrix(2.111898,0,0,2.111898,-2.956653,-0.424426)"/></g><path style=" stroke:none;fill-rule:nonzero;fill:#000000;fill-opacity:1;" d="M 202.332031 244.367188 C 220.871094 240.335938 244.339844 221.371094 245.914062 191.03125 C 246.871094 172.851562 240.609375 157.273438 227.371094 144.800781 C 214.167969 132.363281 198.226562 127.441406 180.09375 129.082031 C 180.027344 128.332031 179.957031 127.785156 179.957031 127.203125 C 179.957031 121.085938 180.027344 114.9375 179.992188 108.820312 C 179.992188 107.453125 180.300781 106.90625 181.773438 106.804688 C 199.558594 105.675781 216.046875 109.742188 230.964844 119.414062 C 250.429688 132.019531 262.8125 149.753906 266.949219 172.578125 C 271.84375 199.640625 264.660156 223.558594 245.777344 243.652344 C 233.460938 256.738281 218.136719 264.5625 200.414062 267.570312 C 194.429688 268.59375 188.40625 269.070312 182.285156 268.527344 C 180.574219 268.390625 180.0625 267.910156 180.0625 266.167969 C 180.027344 237.773438 179.925781 209.378906 179.890625 181.019531 C 179.855469 170.257812 179.957031 159.527344 179.925781 148.765625 C 179.925781 147.054688 180.4375 146.609375 182.078125 146.644531 C 188.203125 146.746094 194.359375 146.714844 200.484375 146.644531 C 202.058594 146.609375 202.535156 147.089844 202.535156 148.695312 C 202.46875 179.585938 202.433594 210.4375 202.398438 241.328125 C 202.332031 242.25 202.332031 243.207031 202.332031 244.367188 Z M 202.332031 244.367188 "/><g clip-rule="nonzero" clip-path="url(#2a6c07ecdf)"><path style=" stroke:none;fill-rule:nonzero;fill:#000000;fill-opacity:1;" d="M 125.808594 187.683594 C 141.578125 187.683594 157.210938 187.683594 172.945312 187.683594 C 172.945312 195.234375 172.945312 202.613281 172.945312 210.300781 C 157.210938 210.300781 141.578125 210.300781 125.808594 210.300781 C 125.808594 211.359375 125.808594 212.113281 125.808594 212.832031 C 125.773438 230.699219 125.738281 248.570312 125.703125 266.40625 C 125.703125 268.695312 125.703125 268.695312 123.410156 268.695312 C 117.5625 268.695312 111.710938 268.695312 105.863281 268.695312 C 103.433594 268.695312 103.433594 268.695312 103.433594 266.203125 C 103.398438 261.109375 103.332031 256.019531 103.332031 250.929688 C 103.332031 230.222656 103.398438 209.449219 103.296875 188.707031 C 103.09375 148.898438 130.734375 116.40625 167.335938 108.445312 C 168.804688 108.136719 170.277344 107.863281 171.75 107.625 C 172.707031 107.453125 173.253906 107.691406 173.253906 108.855469 C 173.21875 115.449219 173.21875 122.042969 173.289062 128.636719 C 173.289062 129.765625 172.707031 129.902344 171.851562 130.109375 C 161.554688 132.464844 152.488281 137.214844 144.65625 144.355469 C 132.75 155.253906 125.191406 172.441406 125.808594 187.683594 Z M 125.808594 187.683594 "/></g></g></svg>